<svg xmlns="http://www.w3.org/2000/svg" width="186.498" height="186.498" viewBox="0 0 3591 3591" shape-rendering="geometricPrecision" text-rendering="geometricPrecision" image-rendering="optimizeQuality" fill-rule="evenodd" clip-rule="evenodd"><defs><style>.fil0,.fil1{fill:#007dc5;fill-rule:nonzero}.fil1{fill:#fff}</style></defs><g id="Layer_x0020_1"><circle class="fil0" cx="1796" cy="1796" r="1796"/><path id="bus.cdr" class="fil1" d="M2759 687c-29-141-120-197-258-254-136-56-436-126-676-128h-59c-240 2-539 72-676 128-138 57-229 113-258 254 0 0-115 1036-115 1060v685h1c3 124 75 231 178 285l1 206c0 206 305 206 305 0v-167h1188v167c0 206 305 206 305 0v-206c103-54 175-161 178-285h1v-685c0-24-115-1060-115-1060zM1217 534h1158c104 0 104 154 0 154H1217c-105 0-105-154 0-154zm-158 1928c-85 0-154-69-154-154s69-154 154-154 154 69 154 154-69 154-154 154zm1473 0c-85 0-154-69-154-154s69-154 154-154 154 69 154 154-69 154-154 154zm67-666H992c-77 0-93-55-86-109l88-731c12-68 36-114 126-114h1351c90 0 114 46 126 114l88 731c7 54-9 109-86 109z"/></g></svg>